<svg width="1600" height="1000" viewBox="0 0 1600 1000" fill="none" xmlns="http://www.w3.org/2000/svg">
  <rect width="1600" height="1000" fill="#F6F8FC"/>
  <rect x="20" y="20" width="220" height="960" rx="24" fill="#152238"/>
  <text x="60" y="75" fill="white" font-family="Arial, sans-serif" font-size="36" font-weight="700">SUKAT</text>
  <text x="60" y="115" fill="#D6E2FF" font-family="Arial, sans-serif" font-size="20" font-weight="600">Insight Dashboard</text>
  <rect x="40" y="188" width="180" height="44" rx="14" fill="#233554"/>
  <text x="65" y="216" fill="white" font-family="Arial, sans-serif" font-size="18">Overview</text>
  <text x="65" y="286" fill="#B7C5E0" font-family="Arial, sans-serif" font-size="18">Students</text>
  <text x="65" y="356" fill="#B7C5E0" font-family="Arial, sans-serif" font-size="18">Topics</text>
  <text x="65" y="426" fill="#B7C5E0" font-family="Arial, sans-serif" font-size="18">Sections</text>
  <text x="65" y="496" fill="#B7C5E0" font-family="Arial, sans-serif" font-size="18">Reports</text>

  <text x="270" y="62" fill="#1F2A44" font-family="Arial, sans-serif" font-size="34" font-weight="700">Teacher Insights</text>
  <text x="270" y="96" fill="#6B7280" font-family="Arial, sans-serif" font-size="18">Quiz assignment analytics and topic mastery</text>

  <g>
    <rect x="270" y="130" width="300" height="110" rx="22" fill="white" stroke="#E8ECF4"/>
    <rect x="288" y="148" width="44" height="44" rx="12" fill="#EAF0FF"/>
    <circle cx="310" cy="170" r="12" fill="#4F7CFF"/>
    <text x="350" y="168" fill="#6B7280" font-family="Arial, sans-serif" font-size="16">Class Avg</text>
    <text x="350" y="202" fill="#1F2A44" font-family="Arial, sans-serif" font-size="26" font-weight="700">74%</text>
  </g>
  <g>
    <rect x="590" y="130" width="300" height="110" rx="22" fill="white" stroke="#E8ECF4"/>
    <rect x="608" y="148" width="44" height="44" rx="12" fill="#FFF1EA"/>
    <circle cx="630" cy="170" r="12" fill="#FF9F43"/>
    <text x="670" y="168" fill="#6B7280" font-family="Arial, sans-serif" font-size="16">Students at Risk</text>
    <text x="670" y="202" fill="#1F2A44" font-family="Arial, sans-serif" font-size="26" font-weight="700">8</text>
  </g>
  <g>
    <rect x="910" y="130" width="300" height="110" rx="22" fill="white" stroke="#E8ECF4"/>
    <rect x="928" y="148" width="44" height="44" rx="12" fill="#FDECEC"/>
    <circle cx="950" cy="170" r="12" fill="#F25F5C"/>
    <text x="990" y="168" fill="#6B7280" font-family="Arial, sans-serif" font-size="16">Lowest Topic</text>
    <text x="990" y="202" fill="#1F2A44" font-family="Arial, sans-serif" font-size="22" font-weight="700">Fractions → Decimals</text>
  </g>
  <g>
    <rect x="1230" y="130" width="300" height="110" rx="22" fill="white" stroke="#E8ECF4"/>
    <rect x="1248" y="148" width="44" height="44" rx="12" fill="#E9FBF8"/>
    <circle cx="1270" cy="170" r="12" fill="#20C7B7"/>
    <text x="1310" y="168" fill="#6B7280" font-family="Arial, sans-serif" font-size="16">Improving Students</text>
    <text x="1310" y="202" fill="#1F2A44" font-family="Arial, sans-serif" font-size="26" font-weight="700">12</text>
  </g>

  <rect x="270" y="270" width="540" height="320" rx="24" fill="white" stroke="#E8ECF4"/>
  <text x="298" y="302" fill="#1F2A44" font-family="Arial, sans-serif" font-size="20" font-weight="700">Class average by topic</text>
  <text x="298" y="330" fill="#6B7280" font-family="Arial, sans-serif" font-size="14">Section 7-A · Science</text>
  <line x1="310" y1="550" x2="790" y2="550" stroke="#E8ECF4"/>
  <line x1="310" y1="502.5" x2="790" y2="502.5" stroke="#E8ECF4"/>
  <line x1="310" y1="455" x2="790" y2="455" stroke="#E8ECF4"/>
  <line x1="310" y1="407.5" x2="790" y2="407.5" stroke="#E8ECF4"/>
  <line x1="310" y1="360" x2="790" y2="360" stroke="#E8ECF4"/>
  <rect x="345" y="394.2" width="55" height="155.8" rx="10" fill="#4F7CFF"/>
  <rect x="435" y="420.8" width="55" height="129.2" rx="10" fill="#4F7CFF"/>
  <rect x="525" y="466.4" width="55" height="83.6" rx="10" fill="#F25F5C"/>
  <rect x="615" y="405.6" width="55" height="144.4" rx="10" fill="#4F7CFF"/>
  <rect x="705" y="439.8" width="55" height="110.2" rx="10" fill="#4F7CFF"/>
  <text x="372" y="382" text-anchor="middle" fill="#1F2A44" font-family="Arial, sans-serif" font-size="12">82%</text>
  <text x="462" y="408" text-anchor="middle" fill="#1F2A44" font-family="Arial, sans-serif" font-size="12">68%</text>
  <text x="552" y="454" text-anchor="middle" fill="#1F2A44" font-family="Arial, sans-serif" font-size="12">44%</text>
  <text x="642" y="393" text-anchor="middle" fill="#1F2A44" font-family="Arial, sans-serif" font-size="12">76%</text>
  <text x="732" y="428" text-anchor="middle" fill="#1F2A44" font-family="Arial, sans-serif" font-size="12">58%</text>
  <text x="372" y="578" text-anchor="middle" fill="#6B7280" font-family="Arial, sans-serif" font-size="12">Ecosystems</text>
  <text x="462" y="578" text-anchor="middle" fill="#6B7280" font-family="Arial, sans-serif" font-size="12">Energy</text>
  <text x="552" y="578" text-anchor="middle" fill="#6B7280" font-family="Arial, sans-serif" font-size="12">Nutrient</text>
  <text x="552" y="594" text-anchor="middle" fill="#6B7280" font-family="Arial, sans-serif" font-size="12">Cycles</text>
  <text x="642" y="578" text-anchor="middle" fill="#6B7280" font-family="Arial, sans-serif" font-size="12">Food Webs</text>
  <text x="732" y="578" text-anchor="middle" fill="#6B7280" font-family="Arial, sans-serif" font-size="12">Adaptation</text>

  <rect x="830" y="270" width="330" height="320" rx="24" fill="white" stroke="#E8ECF4"/>
  <text x="858" y="302" fill="#1F2A44" font-family="Arial, sans-serif" font-size="20" font-weight="700">Student average by topic</text>
  <text x="858" y="330" fill="#6B7280" font-family="Arial, sans-serif" font-size="14">Miguel Santos</text>
  <text x="858" y="392" fill="#1F2A44" font-family="Arial, sans-serif" font-size="15">Ecosystems</text>
  <rect x="858" y="407" width="268" height="20" rx="8" fill="#EEF2F8"/>
  <rect x="858" y="407" width="225" height="20" rx="8" fill="#4F7CFF"/>
  <text x="1135" y="422" fill="#1F2A44" font-family="Arial, sans-serif" font-size="12">84%</text>
  <text x="858" y="450" fill="#1F2A44" font-family="Arial, sans-serif" font-size="15">Energy Flow</text>
  <rect x="858" y="465" width="268" height="20" rx="8" fill="#EEF2F8"/>
  <rect x="858" y="465" width="212" height="20" rx="8" fill="#7EA1FF"/>
  <text x="1135" y="480" fill="#1F2A44" font-family="Arial, sans-serif" font-size="12">79%</text>
  <text x="858" y="508" fill="#1F2A44" font-family="Arial, sans-serif" font-size="15">Nutrient Cycles</text>
  <rect x="858" y="523" width="268" height="20" rx="8" fill="#EEF2F8"/>
  <rect x="858" y="523" width="102" height="20" rx="8" fill="#F25F5C"/>
  <text x="1135" y="538" fill="#1F2A44" font-family="Arial, sans-serif" font-size="12">38%</text>
  <text x="858" y="566" fill="#1F2A44" font-family="Arial, sans-serif" font-size="15">Food Chains</text>
  <rect x="858" y="581" width="268" height="20" rx="8" fill="#EEF2F8"/>
  <rect x="858" y="581" width="174" height="20" rx="8" fill="#FF9F43"/>
  <text x="1135" y="596" fill="#1F2A44" font-family="Arial, sans-serif" font-size="12">65%</text>

  <rect x="1180" y="270" width="400" height="320" rx="24" fill="white" stroke="#E8ECF4"/>
  <text x="1208" y="302" fill="#1F2A44" font-family="Arial, sans-serif" font-size="20" font-weight="700">Student score trend over time</text>
  <text x="1208" y="330" fill="#6B7280" font-family="Arial, sans-serif" font-size="14">Miguel Santos · Last 6 quizzes</text>
  <line x1="1215" y1="555" x2="1550" y2="555" stroke="#E8ECF4"/>
  <line x1="1215" y1="506.25" x2="1550" y2="506.25" stroke="#E8ECF4"/>
  <line x1="1215" y1="457.5" x2="1550" y2="457.5" stroke="#E8ECF4"/>
  <line x1="1215" y1="408.75" x2="1550" y2="408.75" stroke="#E8ECF4"/>
  <line x1="1215" y1="360" x2="1550" y2="360" stroke="#E8ECF4"/>
  <polyline fill="none" stroke="#20C7B7" stroke-width="4" points="1215,453.6 1282,441.9 1349,436.05 1416,447.75 1483,430.2 1550,414.6"/>
  <circle cx="1215" cy="453.6" r="6" fill="#20C7B7"/>
  <circle cx="1282" cy="441.9" r="6" fill="#20C7B7"/>
  <circle cx="1349" cy="436.05" r="6" fill="#20C7B7"/>
  <circle cx="1416" cy="447.75" r="6" fill="#20C7B7"/>
  <circle cx="1483" cy="430.2" r="6" fill="#20C7B7"/>
  <circle cx="1550" cy="414.6" r="6" fill="#20C7B7"/>
  <text x="1215" y="438" text-anchor="middle" fill="#1F2A44" font-family="Arial, sans-serif" font-size="11">52</text>
  <text x="1282" y="426" text-anchor="middle" fill="#1F2A44" font-family="Arial, sans-serif" font-size="11">58</text>
  <text x="1349" y="420" text-anchor="middle" fill="#1F2A44" font-family="Arial, sans-serif" font-size="11">61</text>
  <text x="1416" y="432" text-anchor="middle" fill="#1F2A44" font-family="Arial, sans-serif" font-size="11">57</text>
  <text x="1483" y="414" text-anchor="middle" fill="#1F2A44" font-family="Arial, sans-serif" font-size="11">66</text>
  <text x="1550" y="398" text-anchor="middle" fill="#1F2A44" font-family="Arial, sans-serif" font-size="11">74</text>
  <text x="1215" y="580" text-anchor="middle" fill="#6B7280" font-family="Arial, sans-serif" font-size="11">Q1</text>
  <text x="1282" y="580" text-anchor="middle" fill="#6B7280" font-family="Arial, sans-serif" font-size="11">Q2</text>
  <text x="1349" y="580" text-anchor="middle" fill="#6B7280" font-family="Arial, sans-serif" font-size="11">Q3</text>
  <text x="1416" y="580" text-anchor="middle" fill="#6B7280" font-family="Arial, sans-serif" font-size="11">Q4</text>
  <text x="1483" y="580" text-anchor="middle" fill="#6B7280" font-family="Arial, sans-serif" font-size="11">Q5</text>
  <text x="1550" y="580" text-anchor="middle" fill="#6B7280" font-family="Arial, sans-serif" font-size="11">Q6</text>

  <rect x="270" y="620" width="730" height="340" rx="24" fill="white" stroke="#E8ECF4"/>
  <text x="298" y="652" fill="#1F2A44" font-family="Arial, sans-serif" font-size="20" font-weight="700">Section/classroom comparison by topic</text>
  <text x="298" y="680" fill="#6B7280" font-family="Arial, sans-serif" font-size="14">Average score heatmap</text>
  <text x="530" y="712" text-anchor="middle" fill="#6B7280" font-family="Arial, sans-serif" font-size="12">Fractions</text>
  <text x="660" y="712" text-anchor="middle" fill="#6B7280" font-family="Arial, sans-serif" font-size="12">Decimals</text>
  <text x="790" y="712" text-anchor="middle" fill="#6B7280" font-family="Arial, sans-serif" font-size="12">Ratios</text>
  <text x="920" y="712" text-anchor="middle" fill="#6B7280" font-family="Arial, sans-serif" font-size="12">Algebra</text>
  <text x="310" y="756" fill="#1F2A44" font-family="Arial, sans-serif" font-size="15">Section 7-A</text>
  <text x="310" y="818" fill="#1F2A44" font-family="Arial, sans-serif" font-size="15">Section 7-B</text>
  <text x="310" y="880" fill="#1F2A44" font-family="Arial, sans-serif" font-size="15">Section 7-C</text>
  <rect x="470" y="730" width="100" height="42" rx="10" fill="#F9C9C8"/><text x="520" y="756" text-anchor="middle" fill="#1F2A44" font-family="Arial, sans-serif" font-size="14">48%</text>
  <rect x="600" y="730" width="100" height="42" rx="10" fill="#F9C9C8"/><text x="650" y="756" text-anchor="middle" fill="#1F2A44" font-family="Arial, sans-serif" font-size="14">44%</text>
  <rect x="730" y="730" width="100" height="42" rx="10" fill="#CDEEE7"/><text x="780" y="756" text-anchor="middle" fill="#1F2A44" font-family="Arial, sans-serif" font-size="14">72%</text>
  <rect x="860" y="730" width="100" height="42" rx="10" fill="#CDEEE7"/><text x="910" y="756" text-anchor="middle" fill="#1F2A44" font-family="Arial, sans-serif" font-size="14">76%</text>
  <rect x="470" y="792" width="100" height="42" rx="10" fill="#FFE2B8"/><text x="520" y="818" text-anchor="middle" fill="#1F2A44" font-family="Arial, sans-serif" font-size="14">69%</text>
  <rect x="600" y="792" width="100" height="42" rx="10" fill="#CDEEE7"/><text x="650" y="818" text-anchor="middle" fill="#1F2A44" font-family="Arial, sans-serif" font-size="14">74%</text>
  <rect x="730" y="792" width="100" height="42" rx="10" fill="#CDEEE7"/><text x="780" y="818" text-anchor="middle" fill="#1F2A44" font-family="Arial, sans-serif" font-size="14">78%</text>
  <rect x="860" y="792" width="100" height="42" rx="10" fill="#BFD4FF"/><text x="910" y="818" text-anchor="middle" fill="#1F2A44" font-family="Arial, sans-serif" font-size="14">81%</text>
  <rect x="470" y="854" width="100" height="42" rx="10" fill="#CDEEE7"/><text x="520" y="880" text-anchor="middle" fill="#1F2A44" font-family="Arial, sans-serif" font-size="14">71%</text>
  <rect x="600" y="854" width="100" height="42" rx="10" fill="#CDEEE7"/><text x="650" y="880" text-anchor="middle" fill="#1F2A44" font-family="Arial, sans-serif" font-size="14">77%</text>
  <rect x="730" y="854" width="100" height="42" rx="10" fill="#CDEEE7"/><text x="780" y="880" text-anchor="middle" fill="#1F2A44" font-family="Arial, sans-serif" font-size="14">75%</text>
  <rect x="860" y="854" width="100" height="42" rx="10" fill="#CDEEE7"/><text x="910" y="880" text-anchor="middle" fill="#1F2A44" font-family="Arial, sans-serif" font-size="14">79%</text>

  <rect x="1020" y="620" width="560" height="340" rx="24" fill="white" stroke="#E8ECF4"/>
  <text x="1048" y="652" fill="#1F2A44" font-family="Arial, sans-serif" font-size="20" font-weight="700">At-risk students</text>
  <text x="1048" y="680" fill="#6B7280" font-family="Arial, sans-serif" font-size="14">Ranked actionable list</text>
  <text x="1055" y="725" fill="#6B7280" font-family="Arial, sans-serif" font-size="12">Rank</text>
  <text x="1120" y="725" fill="#6B7280" font-family="Arial, sans-serif" font-size="12">Student</text>
  <text x="1290" y="725" fill="#6B7280" font-family="Arial, sans-serif" font-size="12">Avg</text>
  <text x="1360" y="725" fill="#6B7280" font-family="Arial, sans-serif" font-size="12">Weakest topic</text>
  <text x="1500" y="725" fill="#6B7280" font-family="Arial, sans-serif" font-size="12">Trend</text>
  <text x="1565" y="725" text-anchor="end" fill="#6B7280" font-family="Arial, sans-serif" font-size="12">Action</text>
  <line x1="1048" y1="740" x2="1555" y2="740" stroke="#E8ECF4"/>
  <text x="1055" y="780" fill="#1F2A44" font-family="Arial, sans-serif" font-size="14">1</text>
  <text x="1120" y="780" fill="#1F2A44" font-family="Arial, sans-serif" font-size="14">Miguel Santos</text>
  <text x="1290" y="780" fill="#1F2A44" font-family="Arial, sans-serif" font-size="14">52%</text>
  <text x="1360" y="780" fill="#1F2A44" font-family="Arial, sans-serif" font-size="14">Nutrient Cycles</text>
  <text x="1500" y="780" fill="#F25F5C" font-family="Arial, sans-serif" font-size="14">↓</text>
  <text x="1565" y="780" text-anchor="end" fill="#4F7CFF" font-family="Arial, sans-serif" font-size="14">Remedial quiz</text>
  <line x1="1048" y1="806" x2="1555" y2="806" stroke="#E8ECF4"/>
  <text x="1055" y="840" fill="#1F2A44" font-family="Arial, sans-serif" font-size="14">2</text>
  <text x="1120" y="840" fill="#1F2A44" font-family="Arial, sans-serif" font-size="14">Anna Cruz</text>
  <text x="1290" y="840" fill="#1F2A44" font-family="Arial, sans-serif" font-size="14">57%</text>
  <text x="1360" y="840" fill="#1F2A44" font-family="Arial, sans-serif" font-size="14">Fractions</text>
  <text x="1500" y="840" fill="#6B7280" font-family="Arial, sans-serif" font-size="14">→</text>
  <text x="1565" y="840" text-anchor="end" fill="#4F7CFF" font-family="Arial, sans-serif" font-size="14">Monitor</text>
  <line x1="1048" y1="866" x2="1555" y2="866" stroke="#E8ECF4"/>
  <text x="1055" y="900" fill="#1F2A44" font-family="Arial, sans-serif" font-size="14">3</text>
  <text x="1120" y="900" fill="#1F2A44" font-family="Arial, sans-serif" font-size="14">Paolo Reyes</text>
  <text x="1290" y="900" fill="#1F2A44" font-family="Arial, sans-serif" font-size="14">59%</text>
  <text x="1360" y="900" fill="#1F2A44" font-family="Arial, sans-serif" font-size="14">Decimals</text>
  <text x="1500" y="900" fill="#F25F5C" font-family="Arial, sans-serif" font-size="14">↓</text>
  <text x="1565" y="900" text-anchor="end" fill="#4F7CFF" font-family="Arial, sans-serif" font-size="14">Coaching</text>
  <line x1="1048" y1="926" x2="1555" y2="926" stroke="#E8ECF4"/>
  <text x="1055" y="950" fill="#1F2A44" font-family="Arial, sans-serif" font-size="14">4</text>
  <text x="1120" y="950" fill="#1F2A44" font-family="Arial, sans-serif" font-size="14">Lia Ramos</text>
  <text x="1290" y="950" fill="#1F2A44" font-family="Arial, sans-serif" font-size="14">61%</text>
  <text x="1360" y="950" fill="#1F2A44" font-family="Arial, sans-serif" font-size="14">Ratios</text>
  <text x="1500" y="950" fill="#20C7B7" font-family="Arial, sans-serif" font-size="14">↑</text>
  <text x="1565" y="950" text-anchor="end" fill="#4F7CFF" font-family="Arial, sans-serif" font-size="14">Follow-up</text>

  <rect x="1290" y="40" width="275" height="52" rx="18" fill="white" stroke="#E8ECF4"/>
  <text x="1310" y="70" fill="#6B7280" font-family="Arial, sans-serif" font-size="12">Updated Apr 22 · Prototype PRD visual</text>
</svg>