<svg width="1600" height="1040" viewBox="0 0 1600 1040" fill="none" xmlns="http://www.w3.org/2000/svg">
  <defs>
    <linearGradient id="hero" x1="0" y1="0" x2="1" y2="1">
      <stop offset="0%" stop-color="#3B82F6"/>
      <stop offset="100%" stop-color="#1D4ED8"/>
    </linearGradient>
    <filter id="shadow" x="-20%" y="-20%" width="140%" height="140%">
      <feDropShadow dx="0" dy="10" stdDeviation="16" flood-color="#C9D4EA" flood-opacity="0.45"/>
    </filter>
  </defs>

  <rect width="1600" height="1040" fill="#F4F7FB"/>

  <rect x="24" y="24" width="232" height="992" rx="28" fill="#0F172A"/>
  <text x="64" y="82" fill="white" font-family="Inter, Arial, sans-serif" font-size="34" font-weight="800">SUKAT</text>
  <text x="64" y="116" fill="#93C5FD" font-family="Inter, Arial, sans-serif" font-size="18" font-weight="600">Insight</text>

  <rect x="44" y="174" width="192" height="52" rx="16" fill="#1E293B"/>
  <circle cx="72" cy="200" r="6" fill="#60A5FA"/>
  <text x="92" y="206" fill="#FFFFFF" font-family="Inter, Arial, sans-serif" font-size="18" font-weight="600">Overview</text>
  <circle cx="72" cy="272" r="6" fill="#475569"/>
  <text x="92" y="278" fill="#CBD5E1" font-family="Inter, Arial, sans-serif" font-size="18">Students</text>
  <circle cx="72" cy="344" r="6" fill="#475569"/>
  <text x="92" y="350" fill="#CBD5E1" font-family="Inter, Arial, sans-serif" font-size="18">Topics</text>
  <circle cx="72" cy="416" r="6" fill="#475569"/>
  <text x="92" y="422" fill="#CBD5E1" font-family="Inter, Arial, sans-serif" font-size="18">Sections</text>
  <circle cx="72" cy="488" r="6" fill="#475569"/>
  <text x="92" y="494" fill="#CBD5E1" font-family="Inter, Arial, sans-serif" font-size="18">Reports</text>

  <rect x="48" y="860" width="184" height="132" rx="20" fill="#111C33" stroke="#1E293B"/>
  <text x="64" y="896" fill="#E2E8F0" font-family="Inter, Arial, sans-serif" font-size="16" font-weight="700">Teacher View</text>
  <text x="64" y="924" fill="#94A3B8" font-family="Inter, Arial, sans-serif" font-size="13">Section 7-A</text>
  <text x="64" y="946" fill="#94A3B8" font-family="Inter, Arial, sans-serif" font-size="13">Science</text>
  <rect x="64" y="962" width="112" height="10" rx="5" fill="#1E293B"/>
  <rect x="64" y="962" width="78" height="10" rx="5" fill="#3B82F6"/>

  <text x="286" y="68" fill="#0F172A" font-family="Inter, Arial, sans-serif" font-size="34" font-weight="800">Teacher Insights Dashboard</text>
  <text x="286" y="102" fill="#64748B" font-family="Inter, Arial, sans-serif" font-size="18">Analytics for quiz assignments, student mastery, and section performance</text>

  <rect x="1298" y="40" width="128" height="40" rx="14" fill="#FFFFFF" stroke="#E2E8F0"/>
  <text x="1322" y="65" fill="#0F172A" font-family="Inter, Arial, sans-serif" font-size="15">Q2 2026</text>
  <rect x="1442" y="40" width="134" height="40" rx="14" fill="#FFFFFF" stroke="#E2E8F0"/>
  <text x="1464" y="65" fill="#0F172A" font-family="Inter, Arial, sans-serif" font-size="15">Science 7-A</text>

  <rect x="286" y="132" width="1290" height="126" rx="28" fill="url(#hero)" filter="url(#shadow)"/>
  <text x="324" y="176" fill="#DBEAFE" font-family="Inter, Arial, sans-serif" font-size="16" font-weight="600">Today’s summary</text>
  <text x="324" y="214" fill="#FFFFFF" font-family="Inter, Arial, sans-serif" font-size="30" font-weight="800">Class performance is stable, but one topic needs intervention.</text>
  <text x="324" y="240" fill="#DBEAFE" font-family="Inter, Arial, sans-serif" font-size="16">Most students perform well in Ecosystems and Food Webs. Nutrient Cycles is the clearest learning gap.</text>

  <g filter="url(#shadow)">
    <rect x="286" y="286" width="300" height="116" rx="24" fill="#FFFFFF"/>
    <rect x="606" y="286" width="300" height="116" rx="24" fill="#FFFFFF"/>
    <rect x="926" y="286" width="300" height="116" rx="24" fill="#FFFFFF"/>
    <rect x="1246" y="286" width="330" height="116" rx="24" fill="#FFFFFF"/>
  </g>

  <g>
    <rect x="310" y="310" width="42" height="42" rx="14" fill="#DBEAFE"/>
    <circle cx="331" cy="331" r="11" fill="#3B82F6"/>
    <text x="372" y="326" fill="#64748B" font-family="Inter, Arial, sans-serif" font-size="15">Class average</text>
    <text x="372" y="356" fill="#0F172A" font-family="Inter, Arial, sans-serif" font-size="30" font-weight="800">74%</text>
  </g>
  <g>
    <rect x="630" y="310" width="42" height="42" rx="14" fill="#DCFCE7"/>
    <circle cx="651" cy="331" r="11" fill="#10B981"/>
    <text x="692" y="326" fill="#64748B" font-family="Inter, Arial, sans-serif" font-size="15">Improving students</text>
    <text x="692" y="356" fill="#0F172A" font-family="Inter, Arial, sans-serif" font-size="30" font-weight="800">12</text>
  </g>
  <g>
    <rect x="950" y="310" width="42" height="42" rx="14" fill="#FEE2E2"/>
    <circle cx="971" cy="331" r="11" fill="#EF4444"/>
    <text x="1012" y="326" fill="#64748B" font-family="Inter, Arial, sans-serif" font-size="15">Lowest topic</text>
    <text x="1012" y="356" fill="#0F172A" font-family="Inter, Arial, sans-serif" font-size="24" font-weight="800">Nutrient Cycles</text>
  </g>
  <g>
    <rect x="1270" y="310" width="42" height="42" rx="14" fill="#FEF3C7"/>
    <circle cx="1291" cy="331" r="11" fill="#F59E0B"/>
    <text x="1332" y="326" fill="#64748B" font-family="Inter, Arial, sans-serif" font-size="15">Students at risk</text>
    <text x="1332" y="356" fill="#0F172A" font-family="Inter, Arial, sans-serif" font-size="30" font-weight="800">8</text>
  </g>

  <g filter="url(#shadow)">
    <rect x="286" y="430" width="600" height="314" rx="28" fill="#FFFFFF"/>
    <rect x="910" y="430" width="320" height="314" rx="28" fill="#FFFFFF"/>
    <rect x="1254" y="430" width="322" height="314" rx="28" fill="#FFFFFF"/>
    <rect x="286" y="770" width="644" height="230" rx="28" fill="#FFFFFF"/>
    <rect x="954" y="770" width="622" height="230" rx="28" fill="#FFFFFF"/>
  </g>

  <text x="318" y="466" fill="#0F172A" font-family="Inter, Arial, sans-serif" font-size="21" font-weight="800">Class average by topic</text>
  <text x="318" y="492" fill="#64748B" font-family="Inter, Arial, sans-serif" font-size="14">Shows which topics need reteaching at class level</text>
  <line x1="334" y1="690" x2="854" y2="690" stroke="#E2E8F0"/>
  <line x1="334" y1="633" x2="854" y2="633" stroke="#E2E8F0"/>
  <line x1="334" y1="576" x2="854" y2="576" stroke="#E2E8F0"/>
  <line x1="334" y1="519" x2="854" y2="519" stroke="#E2E8F0"/>
  <rect x="376" y="542" width="62" height="148" rx="14" fill="#3B82F6"/>
  <rect x="478" y="568" width="62" height="122" rx="14" fill="#60A5FA"/>
  <rect x="580" y="619" width="62" height="71" rx="14" fill="#EF4444"/>
  <rect x="682" y="554" width="62" height="136" rx="14" fill="#3B82F6"/>
  <rect x="784" y="586" width="62" height="104" rx="14" fill="#93C5FD"/>
  <text x="407" y="528" text-anchor="middle" fill="#0F172A" font-family="Inter, Arial, sans-serif" font-size="12" font-weight="700">82%</text>
  <text x="509" y="554" text-anchor="middle" fill="#0F172A" font-family="Inter, Arial, sans-serif" font-size="12" font-weight="700">68%</text>
  <text x="611" y="605" text-anchor="middle" fill="#0F172A" font-family="Inter, Arial, sans-serif" font-size="12" font-weight="700">44%</text>
  <text x="713" y="540" text-anchor="middle" fill="#0F172A" font-family="Inter, Arial, sans-serif" font-size="12" font-weight="700">76%</text>
  <text x="815" y="572" text-anchor="middle" fill="#0F172A" font-family="Inter, Arial, sans-serif" font-size="12" font-weight="700">58%</text>
  <text x="407" y="718" text-anchor="middle" fill="#64748B" font-family="Inter, Arial, sans-serif" font-size="12">Ecosystems</text>
  <text x="509" y="718" text-anchor="middle" fill="#64748B" font-family="Inter, Arial, sans-serif" font-size="12">Energy Flow</text>
  <text x="611" y="718" text-anchor="middle" fill="#64748B" font-family="Inter, Arial, sans-serif" font-size="12">Nutrient Cycles</text>
  <text x="713" y="718" text-anchor="middle" fill="#64748B" font-family="Inter, Arial, sans-serif" font-size="12">Food Webs</text>
  <text x="815" y="718" text-anchor="middle" fill="#64748B" font-family="Inter, Arial, sans-serif" font-size="12">Adaptation</text>

  <text x="942" y="466" fill="#0F172A" font-family="Inter, Arial, sans-serif" font-size="21" font-weight="800">Student average by topic</text>
  <text x="942" y="492" fill="#64748B" font-family="Inter, Arial, sans-serif" font-size="14">Miguel Santos</text>
  <text x="942" y="540" fill="#0F172A" font-family="Inter, Arial, sans-serif" font-size="15" font-weight="600">Ecosystems</text>
  <rect x="942" y="552" width="230" height="20" rx="10" fill="#EFF6FF"/>
  <rect x="942" y="552" width="193" height="20" rx="10" fill="#3B82F6"/>
  <text x="1186" y="566" fill="#0F172A" font-family="Inter, Arial, sans-serif" font-size="12">84%</text>
  <text x="942" y="600" fill="#0F172A" font-family="Inter, Arial, sans-serif" font-size="15" font-weight="600">Energy Flow</text>
  <rect x="942" y="612" width="230" height="20" rx="10" fill="#EFF6FF"/>
  <rect x="942" y="612" width="181" height="20" rx="10" fill="#60A5FA"/>
  <text x="1186" y="626" fill="#0F172A" font-family="Inter, Arial, sans-serif" font-size="12">79%</text>
  <text x="942" y="660" fill="#0F172A" font-family="Inter, Arial, sans-serif" font-size="15" font-weight="600">Nutrient Cycles</text>
  <rect x="942" y="672" width="230" height="20" rx="10" fill="#FEF2F2"/>
  <rect x="942" y="672" width="87" height="20" rx="10" fill="#EF4444"/>
  <text x="1186" y="686" fill="#0F172A" font-family="Inter, Arial, sans-serif" font-size="12">38%</text>
  <text x="942" y="720" fill="#0F172A" font-family="Inter, Arial, sans-serif" font-size="15" font-weight="600">Food Chains</text>
  <rect x="942" y="732" width="230" height="20" rx="10" fill="#FFF7ED"/>
  <rect x="942" y="732" width="149" height="20" rx="10" fill="#F59E0B"/>
  <text x="1186" y="746" fill="#0F172A" font-family="Inter, Arial, sans-serif" font-size="12">65%</text>

  <text x="1286" y="466" fill="#0F172A" font-family="Inter, Arial, sans-serif" font-size="21" font-weight="800">Student score trend</text>
  <text x="1286" y="492" fill="#64748B" font-family="Inter, Arial, sans-serif" font-size="14">Last 6 quizzes</text>
  <line x1="1286" y1="690" x2="1548" y2="690" stroke="#E2E8F0"/>
  <line x1="1286" y1="632" x2="1548" y2="632" stroke="#E2E8F0"/>
  <line x1="1286" y1="574" x2="1548" y2="574" stroke="#E2E8F0"/>
  <line x1="1286" y1="516" x2="1548" y2="516" stroke="#E2E8F0"/>
  <polyline fill="none" stroke="#10B981" stroke-width="4" points="1286,607 1338,590 1390,578 1442,588 1494,556 1546,528"/>
  <circle cx="1286" cy="607" r="6" fill="#10B981"/>
  <circle cx="1338" cy="590" r="6" fill="#10B981"/>
  <circle cx="1390" cy="578" r="6" fill="#10B981"/>
  <circle cx="1442" cy="588" r="6" fill="#10B981"/>
  <circle cx="1494" cy="556" r="6" fill="#10B981"/>
  <circle cx="1546" cy="528" r="6" fill="#10B981"/>
  <text x="1286" y="712" text-anchor="middle" fill="#64748B" font-family="Inter, Arial, sans-serif" font-size="12">Q1</text>
  <text x="1338" y="712" text-anchor="middle" fill="#64748B" font-family="Inter, Arial, sans-serif" font-size="12">Q2</text>
  <text x="1390" y="712" text-anchor="middle" fill="#64748B" font-family="Inter, Arial, sans-serif" font-size="12">Q3</text>
  <text x="1442" y="712" text-anchor="middle" fill="#64748B" font-family="Inter, Arial, sans-serif" font-size="12">Q4</text>
  <text x="1494" y="712" text-anchor="middle" fill="#64748B" font-family="Inter, Arial, sans-serif" font-size="12">Q5</text>
  <text x="1546" y="712" text-anchor="middle" fill="#64748B" font-family="Inter, Arial, sans-serif" font-size="12">Q6</text>
  <text x="1286" y="592" text-anchor="middle" fill="#0F172A" font-family="Inter, Arial, sans-serif" font-size="11">52</text>
  <text x="1338" y="575" text-anchor="middle" fill="#0F172A" font-family="Inter, Arial, sans-serif" font-size="11">58</text>
  <text x="1390" y="563" text-anchor="middle" fill="#0F172A" font-family="Inter, Arial, sans-serif" font-size="11">61</text>
  <text x="1442" y="573" text-anchor="middle" fill="#0F172A" font-family="Inter, Arial, sans-serif" font-size="11">57</text>
  <text x="1494" y="541" text-anchor="middle" fill="#0F172A" font-family="Inter, Arial, sans-serif" font-size="11">66</text>
  <text x="1546" y="513" text-anchor="middle" fill="#0F172A" font-family="Inter, Arial, sans-serif" font-size="11">74</text>

  <text x="318" y="806" fill="#0F172A" font-family="Inter, Arial, sans-serif" font-size="21" font-weight="800">Section/classroom comparison by topic</text>
  <text x="318" y="832" fill="#64748B" font-family="Inter, Arial, sans-serif" font-size="14">Heatmap helps deans spot outlier sections quickly</text>
  <text x="520" y="870" text-anchor="middle" fill="#64748B" font-family="Inter, Arial, sans-serif" font-size="12">Fractions</text>
  <text x="646" y="870" text-anchor="middle" fill="#64748B" font-family="Inter, Arial, sans-serif" font-size="12">Decimals</text>
  <text x="772" y="870" text-anchor="middle" fill="#64748B" font-family="Inter, Arial, sans-serif" font-size="12">Ratios</text>
  <text x="898" y="870" text-anchor="middle" fill="#64748B" font-family="Inter, Arial, sans-serif" font-size="12">Algebra</text>
  <text x="318" y="918" fill="#0F172A" font-family="Inter, Arial, sans-serif" font-size="14" font-weight="600">Section 7-A</text>
  <text x="318" y="964" fill="#0F172A" font-family="Inter, Arial, sans-serif" font-size="14" font-weight="600">Section 7-B</text>
  <text x="318" y="1010" fill="#0F172A" font-family="Inter, Arial, sans-serif" font-size="14" font-weight="600">Section 7-C</text>
  <rect x="470" y="892" width="100" height="32" rx="10" fill="#FECACA"/><text x="520" y="913" text-anchor="middle" fill="#7F1D1D" font-family="Inter, Arial, sans-serif" font-size="13" font-weight="700">48%</text>
  <rect x="596" y="892" width="100" height="32" rx="10" fill="#FECACA"/><text x="646" y="913" text-anchor="middle" fill="#7F1D1D" font-family="Inter, Arial, sans-serif" font-size="13" font-weight="700">44%</text>
  <rect x="722" y="892" width="100" height="32" rx="10" fill="#D1FAE5"/><text x="772" y="913" text-anchor="middle" fill="#065F46" font-family="Inter, Arial, sans-serif" font-size="13" font-weight="700">72%</text>
  <rect x="848" y="892" width="100" height="32" rx="10" fill="#BFDBFE"/><text x="898" y="913" text-anchor="middle" fill="#1E3A8A" font-family="Inter, Arial, sans-serif" font-size="13" font-weight="700">76%</text>
  <rect x="470" y="938" width="100" height="32" rx="10" fill="#FDE68A"/><text x="520" y="959" text-anchor="middle" fill="#78350F" font-family="Inter, Arial, sans-serif" font-size="13" font-weight="700">69%</text>
  <rect x="596" y="938" width="100" height="32" rx="10" fill="#D1FAE5"/><text x="646" y="959" text-anchor="middle" fill="#065F46" font-family="Inter, Arial, sans-serif" font-size="13" font-weight="700">74%</text>
  <rect x="722" y="938" width="100" height="32" rx="10" fill="#D1FAE5"/><text x="772" y="959" text-anchor="middle" fill="#065F46" font-family="Inter, Arial, sans-serif" font-size="13" font-weight="700">78%</text>
  <rect x="848" y="938" width="100" height="32" rx="10" fill="#BFDBFE"/><text x="898" y="959" text-anchor="middle" fill="#1E3A8A" font-family="Inter, Arial, sans-serif" font-size="13" font-weight="700">81%</text>
  <rect x="470" y="984" width="100" height="32" rx="10" fill="#D1FAE5"/><text x="520" y="1005" text-anchor="middle" fill="#065F46" font-family="Inter, Arial, sans-serif" font-size="13" font-weight="700">71%</text>
  <rect x="596" y="984" width="100" height="32" rx="10" fill="#D1FAE5"/><text x="646" y="1005" text-anchor="middle" fill="#065F46" font-family="Inter, Arial, sans-serif" font-size="13" font-weight="700">77%</text>
  <rect x="722" y="984" width="100" height="32" rx="10" fill="#D1FAE5"/><text x="772" y="1005" text-anchor="middle" fill="#065F46" font-family="Inter, Arial, sans-serif" font-size="13" font-weight="700">75%</text>
  <rect x="848" y="984" width="100" height="32" rx="10" fill="#D1FAE5"/><text x="898" y="1005" text-anchor="middle" fill="#065F46" font-family="Inter, Arial, sans-serif" font-size="13" font-weight="700">79%</text>

  <text x="986" y="806" fill="#0F172A" font-family="Inter, Arial, sans-serif" font-size="21" font-weight="800">At-risk students</text>
  <text x="986" y="832" fill="#64748B" font-family="Inter, Arial, sans-serif" font-size="14">Ranked list for intervention and coaching</text>
  <text x="986" y="874" fill="#94A3B8" font-family="Inter, Arial, sans-serif" font-size="12">Rank</text>
  <text x="1042" y="874" fill="#94A3B8" font-family="Inter, Arial, sans-serif" font-size="12">Student</text>
  <text x="1208" y="874" fill="#94A3B8" font-family="Inter, Arial, sans-serif" font-size="12">Avg</text>
  <text x="1276" y="874" fill="#94A3B8" font-family="Inter, Arial, sans-serif" font-size="12">Weakest topic</text>
  <text x="1434" y="874" fill="#94A3B8" font-family="Inter, Arial, sans-serif" font-size="12">Trend</text>
  <text x="1510" y="874" fill="#94A3B8" font-family="Inter, Arial, sans-serif" font-size="12">Action</text>
  <line x1="986" y1="888" x2="1538" y2="888" stroke="#E2E8F0"/>

  <rect x="986" y="904" width="560" height="34" rx="12" fill="#F8FAFC"/>
  <text x="1002" y="926" fill="#0F172A" font-family="Inter, Arial, sans-serif" font-size="13" font-weight="700">1</text>
  <text x="1042" y="926" fill="#0F172A" font-family="Inter, Arial, sans-serif" font-size="13" font-weight="600">Miguel Santos</text>
  <text x="1208" y="926" fill="#0F172A" font-family="Inter, Arial, sans-serif" font-size="13">52%</text>
  <text x="1276" y="926" fill="#0F172A" font-family="Inter, Arial, sans-serif" font-size="13">Nutrient Cycles</text>
  <text x="1434" y="926" fill="#DC2626" font-family="Inter, Arial, sans-serif" font-size="13" font-weight="700">↓ Declining</text>
  <rect x="1472" y="912" width="62" height="18" rx="9" fill="#DBEAFE"/><text x="1503" y="925" text-anchor="middle" fill="#1D4ED8" font-family="Inter, Arial, sans-serif" font-size="11" font-weight="700">Remedial</text>

  <rect x="986" y="946" width="560" height="34" rx="12" fill="#FFFFFF"/>
  <text x="1002" y="968" fill="#0F172A" font-family="Inter, Arial, sans-serif" font-size="13" font-weight="700">2</text>
  <text x="1042" y="968" fill="#0F172A" font-family="Inter, Arial, sans-serif" font-size="13" font-weight="600">Anna Cruz</text>
  <text x="1208" y="968" fill="#0F172A" font-family="Inter, Arial, sans-serif" font-size="13">57%</text>
  <text x="1276" y="968" fill="#0F172A" font-family="Inter, Arial, sans-serif" font-size="13">Fractions</text>
  <text x="1434" y="968" fill="#64748B" font-family="Inter, Arial, sans-serif" font-size="13" font-weight="700">→ Stable</text>
  <rect x="1476" y="954" width="58" height="18" rx="9" fill="#F1F5F9"/><text x="1505" y="967" text-anchor="middle" fill="#475569" font-family="Inter, Arial, sans-serif" font-size="11" font-weight="700">Monitor</text>

  <rect x="986" y="988" width="560" height="34" rx="12" fill="#F8FAFC"/>
  <text x="1002" y="1010" fill="#0F172A" font-family="Inter, Arial, sans-serif" font-size="13" font-weight="700">3</text>
  <text x="1042" y="1010" fill="#0F172A" font-family="Inter, Arial, sans-serif" font-size="13" font-weight="600">Paolo Reyes</text>
  <text x="1208" y="1010" fill="#0F172A" font-family="Inter, Arial, sans-serif" font-size="13">59%</text>
  <text x="1276" y="1010" fill="#0F172A" font-family="Inter, Arial, sans-serif" font-size="13">Decimals</text>
  <text x="1434" y="1010" fill="#DC2626" font-family="Inter, Arial, sans-serif" font-size="13" font-weight="700">↓ Declining</text>
  <rect x="1478" y="996" width="56" height="18" rx="9" fill="#FEE2E2"/><text x="1506" y="1009" text-anchor="middle" fill="#B91C1C" font-family="Inter, Arial, sans-serif" font-size="11" font-weight="700">Coach</text>

  <text x="1392" y="170" fill="#E0F2FE" font-family="Inter, Arial, sans-serif" font-size="14">Updated Apr 22 · High-fidelity concept</text>
</svg>